<mxfile host="Electron" agent="Mozilla/5.0 (Macintosh; Intel Mac OS X 10_15_7) AppleWebKit/537.36 (KHTML, like Gecko) draw.io/24.7.17 Chrome/128.0.6613.36 Electron/32.0.1 Safari/537.36" version="24.7.17" pages="3">
  <diagram name="target-architecture" id="O9XdC3RRBetugcBpTLkq">
    <mxGraphModel dx="1461" dy="1067" grid="1" gridSize="10" guides="1" tooltips="1" connect="1" arrows="1" fold="1" page="1" pageScale="1" pageWidth="1654" pageHeight="1169" math="0" shadow="0">
      <root>
        <mxCell id="LcAE4-p-ZAQXSCbZCqAu-0" />
        <mxCell id="LcAE4-p-ZAQXSCbZCqAu-1" parent="LcAE4-p-ZAQXSCbZCqAu-0" />
        <mxCell id="UxH-Qs45etIk6f_FiI_n-0" value="&lt;font color=&quot;#733432&quot;&gt;Unity Catalog&lt;/font&gt;" style="rounded=1;whiteSpace=wrap;html=1;fontSize=16;fillColor=#f8cecc;strokeColor=#b85450;arcSize=6;align=left;labelBackgroundColor=none;spacing=17;verticalAlign=top;spacingTop=-18;" parent="LcAE4-p-ZAQXSCbZCqAu-1" vertex="1">
          <mxGeometry x="360" y="530" width="1110" height="120" as="geometry" />
        </mxCell>
        <mxCell id="LcAE4-p-ZAQXSCbZCqAu-2" value="" style="endArrow=none;dashed=1;html=1;strokeColor=#0000FF;startArrow=none;exitX=0.018;exitY=0.704;exitDx=0;exitDy=0;exitPerimeter=0;entryX=0.994;entryY=0.743;entryDx=0;entryDy=0;entryPerimeter=0;labelBackgroundColor=none;" parent="LcAE4-p-ZAQXSCbZCqAu-1" source="LcAE4-p-ZAQXSCbZCqAu-3" target="LcAE4-p-ZAQXSCbZCqAu-3" edge="1">
          <mxGeometry width="50" height="50" relative="1" as="geometry">
            <mxPoint x="741" y="81" as="sourcePoint" />
            <mxPoint x="1051" y="81" as="targetPoint" />
            <Array as="points">
              <mxPoint x="320" y="160" />
              <mxPoint x="320" y="860" />
              <mxPoint x="1500" y="860" />
              <mxPoint x="1500" y="160" />
            </Array>
          </mxGeometry>
        </mxCell>
        <mxCell id="LcAE4-p-ZAQXSCbZCqAu-3" value="Azure" style="verticalLabelPosition=bottom;html=1;verticalAlign=top;align=center;strokeColor=none;fillColor=#00BEF2;shape=mxgraph.azure.cloud;labelBackgroundColor=none;" parent="LcAE4-p-ZAQXSCbZCqAu-1" vertex="1">
          <mxGeometry x="408.43000000000006" y="130" width="50" height="40" as="geometry" />
        </mxCell>
        <mxCell id="LcAE4-p-ZAQXSCbZCqAu-11" value="" style="endArrow=none;dashed=1;html=1;strokeColor=#0000FF;fillColor=#f8cecc;labelBackgroundColor=none;" parent="LcAE4-p-ZAQXSCbZCqAu-1" source="LcAE4-p-ZAQXSCbZCqAu-75" target="LcAE4-p-ZAQXSCbZCqAu-75" edge="1">
          <mxGeometry width="50" height="50" relative="1" as="geometry">
            <mxPoint x="343.4" y="721.5" as="sourcePoint" />
            <mxPoint x="343.4" y="676.5" as="targetPoint" />
            <Array as="points">
              <mxPoint x="360" y="747" />
              <mxPoint x="1470" y="749" />
              <mxPoint x="1470" y="660" />
              <mxPoint x="360" y="660" />
            </Array>
          </mxGeometry>
        </mxCell>
        <mxCell id="LcAE4-p-ZAQXSCbZCqAu-12" value="write/update&lt;br&gt;events" style="aspect=fixed;html=1;points=[];align=left;image;fontSize=12;image=img/lib/azure2/integration/Event_Grid_Subscriptions.svg;labelPosition=right;verticalLabelPosition=middle;verticalAlign=middle;labelBackgroundColor=none;" parent="LcAE4-p-ZAQXSCbZCqAu-1" vertex="1">
          <mxGeometry x="435.88" y="702.63" width="33.5" height="30" as="geometry" />
        </mxCell>
        <mxCell id="LcAE4-p-ZAQXSCbZCqAu-69" value="" style="sketch=0;aspect=fixed;html=1;points=[];align=left;image;fontSize=12;image=img/lib/mscae/Key.svg;labelBackgroundColor=none;opacity=80;labelPosition=right;verticalLabelPosition=middle;verticalAlign=middle;" parent="LcAE4-p-ZAQXSCbZCqAu-1" vertex="1">
          <mxGeometry x="330" y="166.74" width="18.6" height="30" as="geometry" />
        </mxCell>
        <mxCell id="LcAE4-p-ZAQXSCbZCqAu-75" value="ADLS Gen 2.0" style="aspect=fixed;html=1;points=[];align=left;image;fontSize=12;image=img/lib/mscae/Data_Lake.svg;labelBackgroundColor=none;labelPosition=right;verticalLabelPosition=top;verticalAlign=bottom;" parent="LcAE4-p-ZAQXSCbZCqAu-1" vertex="1">
          <mxGeometry x="340.88000000000005" y="682.63" width="38" height="50" as="geometry" />
        </mxCell>
        <mxCell id="LcAE4-p-ZAQXSCbZCqAu-95" value="Ingestion" style="rounded=1;whiteSpace=wrap;html=1;fillColor=#ffe6cc;strokeColor=#d79b00;labelBackgroundColor=none;" parent="LcAE4-p-ZAQXSCbZCqAu-1" vertex="1">
          <mxGeometry x="418.88" y="196.74" width="100" height="32.25" as="geometry" />
        </mxCell>
        <mxCell id="LcAE4-p-ZAQXSCbZCqAu-96" value="" style="endArrow=none;dashed=1;html=1;strokeColor=#CC6600;startArrow=none;entryX=1;entryY=0.5;entryDx=0;entryDy=0;exitX=0;exitY=0.5;exitDx=0;exitDy=0;labelBackgroundColor=none;" parent="LcAE4-p-ZAQXSCbZCqAu-1" source="LcAE4-p-ZAQXSCbZCqAu-95" target="LcAE4-p-ZAQXSCbZCqAu-95" edge="1">
          <mxGeometry width="50" height="50" relative="1" as="geometry">
            <mxPoint x="142.0300000000001" y="29.759999999999984" as="sourcePoint" />
            <mxPoint x="190.58000000000004" y="29.72000000000002" as="targetPoint" />
            <Array as="points">
              <mxPoint x="348.88" y="213" />
              <mxPoint x="348.88" y="520" />
              <mxPoint x="588.8800000000001" y="519.37" />
              <mxPoint x="588.8800000000001" y="212.37" />
            </Array>
          </mxGeometry>
        </mxCell>
        <mxCell id="LcAE4-p-ZAQXSCbZCqAu-100" value="" style="endArrow=none;dashed=1;html=1;strokeColor=#000000;startArrow=none;exitX=0;exitY=0.5;exitDx=0;exitDy=0;exitPerimeter=0;entryX=1;entryY=0.5;entryDx=0;entryDy=0;entryPerimeter=0;labelBackgroundColor=none;" parent="LcAE4-p-ZAQXSCbZCqAu-1" source="LcAE4-p-ZAQXSCbZCqAu-146" target="LcAE4-p-ZAQXSCbZCqAu-146" edge="1">
          <mxGeometry width="50" height="50" relative="1" as="geometry">
            <mxPoint x="239.09043271311134" y="88.89832982502071" as="sourcePoint" />
            <mxPoint x="277.08956728688895" y="89.11600977243097" as="targetPoint" />
            <Array as="points">
              <mxPoint x="160" y="160" />
              <mxPoint x="160" y="860" />
              <mxPoint x="310" y="860" />
              <mxPoint x="310" y="160" />
            </Array>
          </mxGeometry>
        </mxCell>
        <mxCell id="LcAE4-p-ZAQXSCbZCqAu-146" value="" style="shape=cylinder3;whiteSpace=wrap;html=1;boundedLbl=1;backgroundOutline=1;size=7.60003662109375;fillColor=#f5f5f5;fontColor=#333333;strokeColor=#666666;labelBackgroundColor=none;" parent="LcAE4-p-ZAQXSCbZCqAu-1" vertex="1">
          <mxGeometry x="218.08000000000004" y="139" width="32.36" height="41" as="geometry" />
        </mxCell>
        <mxCell id="LC1OuyFL2lo_jGS1EShN-12" value="" style="endArrow=none;dashed=1;html=1;strokeColor=#007FFF;startArrow=none;exitX=0;exitY=0.5;exitDx=0;exitDy=0;entryX=1;entryY=0.5;entryDx=0;entryDy=0;labelBackgroundColor=none;" parent="LcAE4-p-ZAQXSCbZCqAu-1" source="I6eMV21CClMDfW5IqpgD-1" target="I6eMV21CClMDfW5IqpgD-1" edge="1">
          <mxGeometry width="50" height="50" relative="1" as="geometry">
            <mxPoint x="424.4000000000001" y="784.125" as="sourcePoint" />
            <mxPoint x="524.4000000000001" y="784.125" as="targetPoint" />
            <Array as="points">
              <mxPoint x="360" y="774" />
              <mxPoint x="360" y="848" />
              <mxPoint x="1470" y="848" />
              <mxPoint x="1470" y="778" />
            </Array>
          </mxGeometry>
        </mxCell>
        <mxCell id="LC1OuyFL2lo_jGS1EShN-13" value="Azure Monitor" style="aspect=fixed;html=1;points=[];align=center;image;fontSize=12;image=img/lib/azure2/management_governance/Monitor.svg;labelBackgroundColor=none;" parent="LcAE4-p-ZAQXSCbZCqAu-1" vertex="1">
          <mxGeometry x="568.19" y="780" width="44" height="44" as="geometry" />
        </mxCell>
        <mxCell id="LC1OuyFL2lo_jGS1EShN-14" value="Log Analytics" style="aspect=fixed;html=1;points=[];align=center;image;fontSize=12;image=img/lib/azure2/analytics/Log_Analytics_Workspaces.svg;labelBackgroundColor=none;" parent="LcAE4-p-ZAQXSCbZCqAu-1" vertex="1">
          <mxGeometry x="917" y="780" width="44" height="44" as="geometry" />
        </mxCell>
        <mxCell id="TCyqZ6ukZb-iW6ul-69j-0" value="Data Sources" style="text;html=1;strokeColor=none;fillColor=none;align=center;verticalAlign=middle;whiteSpace=wrap;rounded=0;fontSize=12;labelBackgroundColor=none;" parent="LcAE4-p-ZAQXSCbZCqAu-1" vertex="1">
          <mxGeometry x="190.26" y="180" width="86.5" height="30" as="geometry" />
        </mxCell>
        <mxCell id="I6eMV21CClMDfW5IqpgD-1" value="Management &amp;amp; Governance" style="rounded=1;whiteSpace=wrap;html=1;fontSize=12;fillColor=#dae8fc;strokeColor=#6c8ebf;labelBackgroundColor=none;" parent="LcAE4-p-ZAQXSCbZCqAu-1" vertex="1">
          <mxGeometry x="379.19" y="758" width="161.62" height="32" as="geometry" />
        </mxCell>
        <mxCell id="I6eMV21CClMDfW5IqpgD-2" value="Active Directory" style="image;aspect=fixed;html=1;points=[];align=center;fontSize=12;image=img/lib/azure2/identity/Azure_Active_Directory.svg;labelBackgroundColor=none;" parent="LcAE4-p-ZAQXSCbZCqAu-1" vertex="1">
          <mxGeometry x="1155.06" y="784" width="45.94" height="42" as="geometry" />
        </mxCell>
        <mxCell id="I6eMV21CClMDfW5IqpgD-8" value="Transformation" style="rounded=1;whiteSpace=wrap;html=1;fillColor=#f5f5f5;strokeColor=#666666;labelBackgroundColor=none;fontColor=#333333;" parent="LcAE4-p-ZAQXSCbZCqAu-1" vertex="1">
          <mxGeometry x="701.65" y="196.74" width="100" height="32.25" as="geometry" />
        </mxCell>
        <mxCell id="I6eMV21CClMDfW5IqpgD-9" value="" style="endArrow=none;dashed=1;html=1;strokeColor=#999999;startArrow=none;entryX=1;entryY=0.5;entryDx=0;entryDy=0;exitX=0;exitY=0.5;exitDx=0;exitDy=0;labelBackgroundColor=none;" parent="LcAE4-p-ZAQXSCbZCqAu-1" source="I6eMV21CClMDfW5IqpgD-8" target="I6eMV21CClMDfW5IqpgD-8" edge="1">
          <mxGeometry width="50" height="50" relative="1" as="geometry">
            <mxPoint x="400.6500000000001" y="29.74999999999998" as="sourcePoint" />
            <mxPoint x="449.20000000000005" y="29.710000000000015" as="targetPoint" />
            <Array as="points">
              <mxPoint x="607.5" y="212.99" />
              <mxPoint x="608" y="516.24" />
              <mxPoint x="900" y="516.24" />
              <mxPoint x="900" y="213.24" />
            </Array>
          </mxGeometry>
        </mxCell>
        <mxCell id="I6eMV21CClMDfW5IqpgD-11" value="Delta Lake" style="shape=image;verticalLabelPosition=bottom;labelBackgroundColor=none;verticalAlign=top;aspect=fixed;imageAspect=0;image=https://delta.io/static/3bd8fea55ff57287371f4714232cd4ef/f3063/delta-lake-logo.png;fontSize=12;" parent="LcAE4-p-ZAQXSCbZCqAu-1" vertex="1">
          <mxGeometry x="395.67" y="549" width="40.21" height="39" as="geometry" />
        </mxCell>
        <mxCell id="I6eMV21CClMDfW5IqpgD-12" value="" style="endArrow=none;dashed=1;html=1;strokeColor=#0000FF;fillColor=#f8cecc;entryX=1;entryY=0.5;entryDx=0;entryDy=0;exitX=0;exitY=0.5;exitDx=0;exitDy=0;labelBackgroundColor=none;" parent="LcAE4-p-ZAQXSCbZCqAu-1" source="I6eMV21CClMDfW5IqpgD-11" target="I6eMV21CClMDfW5IqpgD-11" edge="1">
          <mxGeometry width="50" height="50" relative="1" as="geometry">
            <mxPoint x="354" y="741" as="sourcePoint" />
            <mxPoint x="354" y="691" as="targetPoint" />
            <Array as="points">
              <mxPoint x="370" y="568" />
              <mxPoint x="370" y="640" />
              <mxPoint x="1460" y="640" />
              <mxPoint x="1460" y="566" />
            </Array>
          </mxGeometry>
        </mxCell>
        <mxCell id="I6eMV21CClMDfW5IqpgD-13" value="bronze" style="shape=image;verticalLabelPosition=bottom;labelBackgroundColor=none;verticalAlign=top;aspect=fixed;imageAspect=0;image=https://delta.io/static/3bd8fea55ff57287371f4714232cd4ef/f3063/delta-lake-logo.png;fontSize=12;" parent="LcAE4-p-ZAQXSCbZCqAu-1" vertex="1">
          <mxGeometry x="520.45" y="576" width="42.27" height="41" as="geometry" />
        </mxCell>
        <mxCell id="I6eMV21CClMDfW5IqpgD-15" value="Key Vault" style="image;aspect=fixed;html=1;points=[];align=center;fontSize=12;image=img/lib/azure2/security/Key_Vaults.svg;labelBackgroundColor=none;" parent="LcAE4-p-ZAQXSCbZCqAu-1" vertex="1">
          <mxGeometry x="1395.96" y="784" width="40" height="40" as="geometry" />
        </mxCell>
        <mxCell id="I6eMV21CClMDfW5IqpgD-22" value="Enrichment" style="rounded=1;whiteSpace=wrap;html=1;fillColor=#fff2cc;strokeColor=#d6b656;labelBackgroundColor=none;" parent="LcAE4-p-ZAQXSCbZCqAu-1" vertex="1">
          <mxGeometry x="1010" y="196.74" width="100" height="32.25" as="geometry" />
        </mxCell>
        <mxCell id="I6eMV21CClMDfW5IqpgD-23" value="" style="endArrow=none;dashed=1;html=1;strokeColor=#999900;startArrow=none;entryX=1;entryY=0.5;entryDx=0;entryDy=0;exitX=0;exitY=0.5;exitDx=0;exitDy=0;labelBackgroundColor=none;" parent="LcAE4-p-ZAQXSCbZCqAu-1" source="I6eMV21CClMDfW5IqpgD-22" target="I6eMV21CClMDfW5IqpgD-22" edge="1">
          <mxGeometry width="50" height="50" relative="1" as="geometry">
            <mxPoint x="713.1500000000001" y="29.74999999999998" as="sourcePoint" />
            <mxPoint x="761.7" y="29.710000000000015" as="targetPoint" />
            <Array as="points">
              <mxPoint x="920" y="212.99" />
              <mxPoint x="921" y="516.24" />
              <mxPoint x="1210" y="516.24" />
              <mxPoint x="1210" y="213.24" />
            </Array>
          </mxGeometry>
        </mxCell>
        <mxCell id="I6eMV21CClMDfW5IqpgD-25" value="silver" style="shape=image;verticalLabelPosition=bottom;labelBackgroundColor=none;verticalAlign=top;aspect=fixed;imageAspect=0;image=https://delta.io/static/3bd8fea55ff57287371f4714232cd4ef/f3063/delta-lake-logo.png;fontSize=12;" parent="LcAE4-p-ZAQXSCbZCqAu-1" vertex="1">
          <mxGeometry x="735.29" y="576" width="42.27" height="41" as="geometry" />
        </mxCell>
        <mxCell id="I6eMV21CClMDfW5IqpgD-26" value="gold" style="shape=image;verticalLabelPosition=bottom;labelBackgroundColor=none;verticalAlign=top;aspect=fixed;imageAspect=0;image=https://delta.io/static/3bd8fea55ff57287371f4714232cd4ef/f3063/delta-lake-logo.png;fontSize=12;" parent="LcAE4-p-ZAQXSCbZCqAu-1" vertex="1">
          <mxGeometry x="1055.29" y="576" width="42.27" height="41" as="geometry" />
        </mxCell>
        <mxCell id="I6eMV21CClMDfW5IqpgD-27" value="Storage FileSystem" style="aspect=fixed;html=1;points=[];align=center;image;fontSize=12;image=img/lib/azure2/general/Storage_Container.svg;labelBackgroundColor=none;" parent="LcAE4-p-ZAQXSCbZCqAu-1" vertex="1">
          <mxGeometry x="748.1600000000001" y="681.65" width="51.69" height="42" as="geometry" />
        </mxCell>
        <mxCell id="I6eMV21CClMDfW5IqpgD-33" value="" style="shape=flexArrow;endArrow=classic;startArrow=classic;html=1;rounded=0;fontSize=12;startSize=8;endSize=8;curved=1;fillColor=#d5e8d4;strokeColor=#82b366;labelBackgroundColor=none;" parent="LcAE4-p-ZAQXSCbZCqAu-1" edge="1">
          <mxGeometry width="100" height="100" relative="1" as="geometry">
            <mxPoint x="915" y="700" as="sourcePoint" />
            <mxPoint x="915" y="620" as="targetPoint" />
          </mxGeometry>
        </mxCell>
        <mxCell id="I6eMV21CClMDfW5IqpgD-36" value="Azure VNet" style="verticalLabelPosition=bottom;html=1;verticalAlign=top;align=center;strokeColor=none;fillColor=#00BEF2;shape=mxgraph.azure.virtual_network;pointerEvents=1;fontSize=12;labelBackgroundColor=none;" parent="LcAE4-p-ZAQXSCbZCqAu-1" vertex="1">
          <mxGeometry x="726.65" y="788.25" width="50" height="27.500000000000004" as="geometry" />
        </mxCell>
        <mxCell id="I6eMV21CClMDfW5IqpgD-38" value="" style="shape=image;verticalLabelPosition=bottom;labelBackgroundColor=none;verticalAlign=top;aspect=fixed;imageAspect=0;image=https://d33wubrfki0l68.cloudfront.net/71c06092efb06fcf30ebecdfda4ff6514ae3112d/aa352/blog/parquet-file-format-big-data-r/parquet-logo.png;" parent="LcAE4-p-ZAQXSCbZCqAu-1" vertex="1">
          <mxGeometry x="726.6499999999999" y="669.9999999999999" width="36.5" height="24.32" as="geometry" />
        </mxCell>
        <mxCell id="I6eMV21CClMDfW5IqpgD-42" value="SQL Endpoint" style="aspect=fixed;html=1;points=[];align=center;image;fontSize=12;image=img/lib/mscae/Databricks.svg;labelBackgroundColor=none;" parent="LcAE4-p-ZAQXSCbZCqAu-1" vertex="1">
          <mxGeometry x="1130" y="426.24" width="54.7" height="52.5" as="geometry" />
        </mxCell>
        <mxCell id="I6eMV21CClMDfW5IqpgD-53" value="Serving" style="rounded=1;whiteSpace=wrap;html=1;fillColor=#dae8fc;strokeColor=#6c8ebf;labelBackgroundColor=none;" parent="LcAE4-p-ZAQXSCbZCqAu-1" vertex="1">
          <mxGeometry x="1300.96" y="196.74" width="100" height="32.25" as="geometry" />
        </mxCell>
        <mxCell id="I6eMV21CClMDfW5IqpgD-54" value="" style="endArrow=none;dashed=1;html=1;strokeColor=#007FFF;startArrow=none;entryX=1;entryY=0.5;entryDx=0;entryDy=0;exitX=0;exitY=0.5;exitDx=0;exitDy=0;labelBackgroundColor=none;" parent="LcAE4-p-ZAQXSCbZCqAu-1" source="I6eMV21CClMDfW5IqpgD-53" target="I6eMV21CClMDfW5IqpgD-53" edge="1">
          <mxGeometry width="50" height="50" relative="1" as="geometry">
            <mxPoint x="1013.1500000000001" y="204.62" as="sourcePoint" />
            <mxPoint x="1061.7" y="204.58000000000004" as="targetPoint" />
            <Array as="points">
              <mxPoint x="1230" y="213.24" />
              <mxPoint x="1230" y="516.24" />
              <mxPoint x="1470" y="516.24" />
              <mxPoint x="1470" y="213.24" />
            </Array>
          </mxGeometry>
        </mxCell>
        <mxCell id="I6eMV21CClMDfW5IqpgD-57" value="BI Dashboard" style="html=1;strokeColor=none;fillColor=#0079D6;labelPosition=center;verticalLabelPosition=middle;verticalAlign=top;align=center;fontSize=12;outlineConnect=0;spacingTop=-6;fontColor=#FFFFFF;sketch=0;shape=mxgraph.sitemap.chart;labelBackgroundColor=none;" parent="LcAE4-p-ZAQXSCbZCqAu-1" vertex="1">
          <mxGeometry x="1310.96" y="423.33000000000004" width="90" height="58.32" as="geometry" />
        </mxCell>
        <mxCell id="gEyKVkVUw-G5Uj5i3CAT-8" value="Device Logs" style="outlineConnect=0;dashed=0;verticalLabelPosition=bottom;verticalAlign=top;align=center;html=1;shape=mxgraph.aws3.flow_logs;fillColor=#000000;gradientColor=none;fontSize=12;" parent="LcAE4-p-ZAQXSCbZCqAu-1" vertex="1">
          <mxGeometry x="203.51" y="381.62" width="60" height="60" as="geometry" />
        </mxCell>
        <mxCell id="gEyKVkVUw-G5Uj5i3CAT-10" value="Azure Event Hub" style="image;aspect=fixed;html=1;points=[];align=center;fontSize=12;image=img/lib/azure2/analytics/Event_Hubs.svg;" parent="LcAE4-p-ZAQXSCbZCqAu-1" vertex="1">
          <mxGeometry x="378.88" y="317.33" width="57" height="51.04" as="geometry" />
        </mxCell>
        <mxCell id="gEyKVkVUw-G5Uj5i3CAT-11" value="01_ingestion" style="aspect=fixed;html=1;points=[];align=center;image;fontSize=12;image=img/lib/mscae/Databricks.svg;labelBackgroundColor=none;" parent="LcAE4-p-ZAQXSCbZCqAu-1" vertex="1">
          <mxGeometry x="514.99" y="317.33" width="53.2" height="51.06" as="geometry" />
        </mxCell>
        <mxCell id="gEyKVkVUw-G5Uj5i3CAT-12" value="Production IIoT Data" style="sketch=0;points=[[0,0,0],[0.25,0,0],[0.5,0,0],[0.75,0,0],[1,0,0],[0,1,0],[0.25,1,0],[0.5,1,0],[0.75,1,0],[1,1,0],[0,0.25,0],[0,0.5,0],[0,0.75,0],[1,0.25,0],[1,0.5,0],[1,0.75,0]];outlineConnect=0;fontColor=#232F3E;fillColor=#000000;strokeColor=#ffffff;dashed=0;verticalLabelPosition=bottom;verticalAlign=top;align=center;html=1;fontSize=12;fontStyle=0;aspect=fixed;shape=mxgraph.aws4.resourceIcon;resIcon=mxgraph.aws4.lookout_for_equipment;" parent="LcAE4-p-ZAQXSCbZCqAu-1" vertex="1">
          <mxGeometry x="203.51" y="249.88" width="60" height="60" as="geometry" />
        </mxCell>
        <mxCell id="gEyKVkVUw-G5Uj5i3CAT-13" value="" style="endArrow=classic;html=1;strokeWidth=2;strokeColor=#00994D;labelBackgroundColor=none;" parent="LcAE4-p-ZAQXSCbZCqAu-1" source="gEyKVkVUw-G5Uj5i3CAT-10" target="gEyKVkVUw-G5Uj5i3CAT-11" edge="1">
          <mxGeometry width="50" height="50" relative="1" as="geometry">
            <mxPoint x="1348.88" y="288.37" as="sourcePoint" />
            <mxPoint x="1378.88" y="196.37" as="targetPoint" />
            <Array as="points" />
          </mxGeometry>
        </mxCell>
        <mxCell id="gEyKVkVUw-G5Uj5i3CAT-17" value="Product IoT Data" style="sketch=0;points=[[0,0,0],[0.25,0,0],[0.5,0,0],[0.75,0,0],[1,0,0],[0,1,0],[0.25,1,0],[0.5,1,0],[0.75,1,0],[1,1,0],[0,0.25,0],[0,0.5,0],[0,0.75,0],[1,0.25,0],[1,0.5,0],[1,0.75,0]];outlineConnect=0;fontColor=#232F3E;fillColor=#000000;strokeColor=#ffffff;dashed=0;verticalLabelPosition=bottom;verticalAlign=top;align=center;html=1;fontSize=12;fontStyle=0;aspect=fixed;shape=mxgraph.aws4.resourceIcon;resIcon=mxgraph.aws4.internet_of_things;" parent="LcAE4-p-ZAQXSCbZCqAu-1" vertex="1">
          <mxGeometry x="204.26000000000002" y="512.63" width="60" height="60" as="geometry" />
        </mxCell>
        <mxCell id="gEyKVkVUw-G5Uj5i3CAT-19" value="APIs" style="sketch=0;points=[[0,0,0],[0.25,0,0],[0.5,0,0],[0.75,0,0],[1,0,0],[0,1,0],[0.25,1,0],[0.5,1,0],[0.75,1,0],[1,1,0],[0,0.25,0],[0,0.5,0],[0,0.75,0],[1,0.25,0],[1,0.5,0],[1,0.75,0]];outlineConnect=0;fontColor=#232F3E;fillColor=#000000;strokeColor=#ffffff;dashed=0;verticalLabelPosition=bottom;verticalAlign=top;align=center;html=1;fontSize=12;fontStyle=0;aspect=fixed;shape=mxgraph.aws4.resourceIcon;resIcon=mxgraph.aws4.cloud_control_api;" parent="LcAE4-p-ZAQXSCbZCqAu-1" vertex="1">
          <mxGeometry x="203.51" y="642.63" width="60" height="60" as="geometry" />
        </mxCell>
        <mxCell id="g3JtSoTKQPr87EbilQ1k-0" value="" style="endArrow=classic;html=1;strokeWidth=2;strokeColor=#00994D;labelBackgroundColor=none;exitX=1;exitY=0.5;exitDx=0;exitDy=0;exitPerimeter=0;" parent="LcAE4-p-ZAQXSCbZCqAu-1" source="gEyKVkVUw-G5Uj5i3CAT-12" target="gEyKVkVUw-G5Uj5i3CAT-10" edge="1">
          <mxGeometry width="50" height="50" relative="1" as="geometry">
            <mxPoint x="446" y="297" as="sourcePoint" />
            <mxPoint x="519" y="297" as="targetPoint" />
            <Array as="points">
              <mxPoint x="330" y="280" />
              <mxPoint x="330" y="343" />
            </Array>
          </mxGeometry>
        </mxCell>
        <mxCell id="g3JtSoTKQPr87EbilQ1k-2" value="" style="endArrow=classic;html=1;strokeWidth=2;strokeColor=#00994D;labelBackgroundColor=none;exitX=1;exitY=0.5;exitDx=0;exitDy=0;exitPerimeter=0;" parent="LcAE4-p-ZAQXSCbZCqAu-1" source="gEyKVkVUw-G5Uj5i3CAT-8" target="gEyKVkVUw-G5Uj5i3CAT-10" edge="1">
          <mxGeometry width="50" height="50" relative="1" as="geometry">
            <mxPoint x="274" y="237" as="sourcePoint" />
            <mxPoint x="389" y="297" as="targetPoint" />
            <Array as="points">
              <mxPoint x="330" y="412" />
              <mxPoint x="330" y="343" />
            </Array>
          </mxGeometry>
        </mxCell>
        <mxCell id="g3JtSoTKQPr87EbilQ1k-3" value="" style="endArrow=classic;html=1;strokeWidth=2;strokeColor=#00994D;labelBackgroundColor=none;exitX=1;exitY=0.5;exitDx=0;exitDy=0;exitPerimeter=0;" parent="LcAE4-p-ZAQXSCbZCqAu-1" source="gEyKVkVUw-G5Uj5i3CAT-17" target="gEyKVkVUw-G5Uj5i3CAT-10" edge="1">
          <mxGeometry width="50" height="50" relative="1" as="geometry">
            <mxPoint x="274" y="369" as="sourcePoint" />
            <mxPoint x="389" y="297" as="targetPoint" />
            <Array as="points">
              <mxPoint x="330" y="543" />
              <mxPoint x="330" y="343" />
            </Array>
          </mxGeometry>
        </mxCell>
        <mxCell id="g3JtSoTKQPr87EbilQ1k-4" value="" style="endArrow=classic;html=1;strokeWidth=2;strokeColor=#00994D;labelBackgroundColor=none;exitX=1;exitY=0.5;exitDx=0;exitDy=0;exitPerimeter=0;" parent="LcAE4-p-ZAQXSCbZCqAu-1" source="gEyKVkVUw-G5Uj5i3CAT-19" target="gEyKVkVUw-G5Uj5i3CAT-10" edge="1">
          <mxGeometry width="50" height="50" relative="1" as="geometry">
            <mxPoint x="275" y="500" as="sourcePoint" />
            <mxPoint x="389" y="297" as="targetPoint" />
            <Array as="points">
              <mxPoint x="330" y="670" />
              <mxPoint x="330" y="343" />
            </Array>
          </mxGeometry>
        </mxCell>
        <mxCell id="g3JtSoTKQPr87EbilQ1k-5" value="02_transformation" style="aspect=fixed;html=1;points=[];align=center;image;fontSize=12;image=img/lib/mscae/Databricks.svg;labelBackgroundColor=none;" parent="LcAE4-p-ZAQXSCbZCqAu-1" vertex="1">
          <mxGeometry x="648.45" y="426.24" width="53.2" height="51.06" as="geometry" />
        </mxCell>
        <mxCell id="g3JtSoTKQPr87EbilQ1k-6" value="Training" style="aspect=fixed;html=1;points=[];align=center;image;fontSize=12;image=img/lib/mscae/Databricks.svg;labelBackgroundColor=none;" parent="LcAE4-p-ZAQXSCbZCqAu-1" vertex="1">
          <mxGeometry x="950" y="236.24" width="53.2" height="51.06" as="geometry" />
        </mxCell>
        <mxCell id="g3JtSoTKQPr87EbilQ1k-7" value="Serving" style="shape=image;verticalLabelPosition=bottom;labelBackgroundColor=default;verticalAlign=top;aspect=fixed;imageAspect=0;image=data:image/png,iVBORw0KGgoAAAANSUhEUgAAAhAAAADMCAMAAAAVvWrGAAAABGdBTUEAALGPC/xhBQAAAAFzUkdCAK7OHOkAAAFHUExURQAAAEDP70DP3wCP3wAAAELO7wCc5gAAAEDH70DH5wCX3wCP3wAAAEDF70DF6gCV5ACV3wCP3wAAAETH60DH6wCT4wCT3wAAAEPJ7EDJ7EPG7ACT4gCT3wAAAEPM7wOW5AAAAELH7ACS4gCS3wAAAEPK7wKV4wAAAETI60LI60LG7ULG6wCU4QCS4QAAAETL7wKV4wAAAETH60LH6wCT4QAAAETJ7ULJ7wKU4gCU4gAAAEPI7ELI7AKT3wCT4QAAAEPK7ULK7EPI7QKV4gKU4gCV4gCU4gAAAEPH7EHH7ACT4QAAAEPJ7gGV4gCV4gGT4gCT4gAAAACU4UPK7kPK7AGU4gCU4gAAAEPK7UPJ7QGU4wGU4QCU4QAAAEPJ7kPJ7ULJ7UPI7QGV4gGU4gAAAEPJ7ULJ7QGU4gGT4gAAAEPJ7QGU4gAAADse0BIAAABqdFJOUwAQEBAQHx8fICAgICAwMDAwMDBAQEBAQFBQUFBQUF9fX2BgYGBvb29wcHBwcHBwf39/gICAgI+Pj4+PkJCQkJCfn5+fn5+fn6CgoKCvr6+vr6+wv7+/v7/Pz8/Pz8/f39/f39/f7+/v7+/H8IULAAAOsElEQVR42u2d7X/TyBHHlchNSeRSE7BD69A2FuWuhxPSIq4p1/raxg6t4chBUFJsUuBksGP7/3/dT8iDJe3T7EhyvdL8XsLKsXe/mv3t7GhlWSQSiUQikUgkEolEIpFIJBKJRCKRSKSF1Nra2ppN3UCyftnY+yEYTS4V9P297Sr1SkFlN/avUQhr5Neoc4qn6h6Xhi/apO4pHA7+RCKHOqhYcg5lOEz61EPF0oORlIdJi7qoUF5SHh7IQhRtughUPEwoI1Eg3VLzQBaiSDyMlDyQhaD5IipKSxEPZCGKKR/CwzH1U1G0C+Fh4lFHFWXCAPFAFqIwkhmI0XHH23bd7W4woY4qiFyxa9hemzVbo54qeIA4pjmCAsRMAeFAASKclaSkAwUIWmKSBDkp4oFyELSLRRLNGAH5B5oxqJSWdC6bw8MBdUtxVacAQQqrRQGCpLAQFCCKLCqDIYVVYYFoUK8UWE2aMUhhtWnGIIXVw2etq3FRb5ovG1846dBjXYuopycx/Vzr8ir+2Ys6pS8WUSfTmPSAYD1lAL20RauTHALBPv//Gnopk9Gq0GiYD0QPXxkTv3BIg2E+EAk8ZYWWqzkEIoGnbFLRXQ6B8PBHghzSc345BCKBp+zRUQE5BGLIANHEug9KS+UACAfvKavo0EJaXCDqeE/pYUMLaYGBaOE9pU+eModA+HhPybgPGoocAIH3lJSWyiMQFbyndOnZvxwCkcBTtugQ7BwCkcBT9qgQ02Qg/rbPFXtQyHBfpGixg42uoiAtAhCT5GpQWio/QDgpABGdEpqUljIZiGpyHmJTAm11Gg2EmxyIWAFtQFudJgPhJQdiUz4H0VanUUAcJgfClicwqALfKCD8xDz0FQkMqsA3CohhYiBaCsKoAt8oIJLPGDX5B1IFvlFAVNK2ELTVaTYQydMQsQGnCnyzgWgmBsKjtFSegGilbSGoAt9sINwOT+zSI+iIFP08qsBPqnK5XC5l0NZKUg/RQx9PmWirc/XmnXOtLhcThdK9p68GFwN1dvpqZ13WdmPn2enZ5aienjzZKGULxARdT4mswF++882L/46v9eno27vLeb39wwrRcJ8ZrcGzsoCGp2fxttNX9zMEooqvp8RU4C9vHX0aszr6ZhX0J9cYyW2LrelqeK+Xq/qXWrH2/S+f5/h/AfAgGpDSH9khPhcPiY0TbtPp4H5mQHCWHtDe06/Av/Mtj4ZLJrYyCGez3djgUiuy5rPNutFFa/882+J53rDveZ5tBRe5eReScBEB8RUfBx4SIhxASGCBaKPrKbXTUneOxlK9VyMR6J1rwtnvr2h1xtXeTHDhp4N3/pfQGKCBKEvGeDodRLzE06lUT0uZAIH3lJoV+Mv/HCulRIL9th09fqTbb46wHOgKiP3zlbUzaWGBuHcmH+TpzsxonCiaTgflLIDAe0q9CvzffxpD9He5l+hqPWLmar4zShggroFoBE3L8g66SCC+mip1RUR5oG4rJQIJRAJPqVOBv3o0BupID0LZPOXwXjvZwQSIGRCeb1lBDQkEgIfp9HdgHuREIIHAe0qdCvyb76E8vFjS/Lo/iRvvAio6wtoTTy/XQNiTlWpg4YBYh4zx9Ox8kEunoLbTQSltIPBHXGukpX4DxeHz14o/WtcAgl9jPoQHlBDh10BYvtc+wAGxMYAN8onaT4acZdpA4I+4hlfgP4Ly8OEXqj/qaAS0Nn8/ZgUcUBo8IJp+UMEBcQId5B3r/hSsjZSBwL8lA7zVCebhuyX9eUq8oSZ6CKUCXZKEp8AZEPawb+GAAOtsfQBvLJw0cEBUNRfqsiWdnYwH5XTBT4YJ7/g26NEzyZKkwQXC8jazBmJ6ptP4SapA4D0ltAL/LpCH/9zAYSgKTFVgWSgoQFjHF1cdX66sWy8zBUKPnlKaQOA9JbACf1WQfnj/j8dbd1+Ip4sHu8CJSpT96IuA6CACBGpva05AhHJZKQCB95SwCvxl7nrzzeVW1nVy4vPdmFU4FA10FzgFuNAnCUABImUgTp7cK5es0vrGE4DRHHx/2XjnRLwqSQ0IvKeEVeD/mZeMvH31v1dAvIlNF9Xz0Rk6sDmuCU1aS9edqQcIMRDPwhsW5eeKNeiGunEpPSASeEpQP/+KEx1uz/77EojHsaseXHyiD7vzW3oBQuBCmQDhZATEabwWRpaTPNuANL6fHhB4Twnb6nwvX0p8AeLD7Zhb9WV2sQLzBIEEiAoEoOT143wgnrO3c/lUIzPNS2E+Sw8IvKcEVeA/UmSe3p5HjJibrI5md6kNyS68hiatZZOBn3qA4APxnNeyNNDYqeAQMUgPCLynhKSlVuMB4kPMK3wcj7+W7Sd4ENdzDNzVkv3EagYPmJThWaQNnZ2rMtBEoIDAe0pIBf4jBQ/Wx3iu2ol+7NAGTAY/wXNSwjkmgwDBBUK0Ock1i6KSqCdMy/W0gMB7SlAF/nsFD9bDeK7aDpQrCF/tZh2tJ9h5F6TxBFoZOtkLQsSJqHEJhg4GiKbGXqD+VudWLEDcheQ/o6lpH5KIUAWId8rf2M4gQPCAKMO3JiW7VmzjnbSAwHtKSAV+rCbmO9AHb6uciadcRsbv98pQ84J0HlEtw+953jQwEDfeAW1nYIDAe0pABf5qbMJYwnxyC5BhWJF/twPmy1bmESA4QEjqpNk543tx4/XMgJhANwbUm47KGWML+MkVhWOsq3a3XKawrys3ztkECA4Q6zqNxTMGayLSAgLvKSFpqeiM8QHckT/K04qOCuKA2XNrysNgNgGCHeMzWWtgPvpCg4yAwHtKSAU+LkBYVk3uTWzFSpkNEExQ6cwjQHAqpiyNMR5Y/wcg8J6yrZ5qbkeBuAHvSV+eNBjKB5ANEMyQ96W/ZegsAhDSxicZAYH3lIAK/IfRLS2NnvTkJqIn/dIu74sNJXHQyepkxTI4C7EwQKA9JaQC/68RIP6g0ZM1uVs9lGUe40lrj8vQimzbwyksEHhPCUlLRT3lTZ2uHEpdZUv2x3e5/rAr/pnMtkdqR6+aBwTeU0Iq8N9GgNDqyp40wdGUGB+H7zebYhvqZvYCGPOAwHtKyFbn50gFpVZXdqW7ba5kd6vNn8nqYteRWYAwEAi8p4RU4KM9ZcxVNpQ5kKEqQDD/3plDgDAQCLSnBFXgZwaEI97daousrvD7ZhcgzAMC7ylBFfiZAcEmIlYEv6ghGvfhHAKEeUDgPSWoAj87IAIREIFwLdyFXZHq2x2MAwLvKUEV+BFT+VarK1tyIESW1hVPgB7/C2cZIMwDAu8pQZHlYxiIT1pd6csXMF1BgArEeLugK9J9/YtxQKA9ZRUUWaJ5iJ+h8xAV+YwyG15XcrdXuOjXswwQxgGB95SwM/D/HQHi1xo9aSsKLfjPUNiB5G63uetOP9P3Q5kGBN5Twg6GeIion+MsYvoAlFu8PQlHZkT73M9xCg0E3lPCzsCPHgOgYyLail0Sh7e75QTSu/2Qw/5hti+QMw0ItKcEnoG/FK2HuAOfMYaqR3l5u1tt+d3eYtedTrYBwjgg0vOUgsPG3mqcNii2CBVA5rzPju6BwndUWITSfsOkYUDgPSX0DPxoQcR4FdqRgfKUhh67u9VWlEVWmIVJ1gHCNCDwnhL6asbbY1SIcNW3bZf55o5q3WMz02PWAcI0IPCeEnwG/meMi4iZwxoodR6HlFM3HZtmOpkHCNOAQHtK+Bn4f4qdKgV6UqcNONeHTYSo91ZiyPQzDxCmAYH2lPAz8JfGqmf52Neb7EKeRWcyjCP18VCxqDLMPEAYBgTHUwK7pA0HKVpW+Zj9EszbTDZBFfGqF9I2QJ4p4wBhGBB4T6lxBn7YVsYPDrqIBjEgbo1Aw2TLBzcARZWsA4RhQKA9pc4Z+KEQ8YYxEF+OkopOGb8dAZ+pG2oHCMWZERkECMOAYD0l8AE2rVcz3rjigT21+OIoKZl/kJymHmgHCAVETuGBQHtK+Bn4s4UG55D7PWbF6vjw2HMoG9wa9BbINkCYBQTeU+q97nvpw3g8/hc7XfTiKQx7d6TxjbqSwX2JuMYpPBB4Twk9A//aV3IOuX8wiuW0qnssDrI5rIkY3OacA4RZQKA9JfQM/GttMY9923uRR2zW6ntcS3CskwsBDG59zgHCLCDQnrKOrcOcLS1Dwz/sByORNXR0sqWAwXXmHCDMAgLtKWFn4Ev0YDSBSH6KC2pwh/MNEEYBgfeU0K1OURbjEITDZHTL0ky8q39Gb74Bwigg8J4Se91VrhrGQ3BL19oCJrDufAOEUUCgPWUVeZ0g84SaL7iBCnChN98AYRQQaE/ZRF7HzzwJdKy+ZwV3u+6L4bMMEEYBAU7vJUtLcXLVAEHWLZ5O0lq6NMksQJgEBMdT2rAf2UNeZ1l2FzhdgBBz4bta4m05hCnOKRBNzXtL3Kd9jQ5yAY5y5MEIq+sHCL4TPbYICJ6nfI30lK+1ukiFBBQHQSJClRI5nKCnypwDgfaU0Ap8FBJwHPjhXxnlWnMNECYBgb5R/OQzcKXLZWLU0btXh/oBgmc8agREIk8JrsCXM7H9MvJOk9FLr2ZrfkYPcbNX5hogDAIC7ym9mBK87LRSc7c9b9vdrNiYyw8RN7s91wBhkNCecoFkr8UFuAhzTRGE9pSkfGpCoZOUiqck5VJoT0kiT0kiT0kqmGzylKSw6uQpSXIL0adOKfKMMSRPSQqJs+XXpF4psALylKSQOGlK8pQUIOZXFEAyzkFQWqrAcoK5FqKTFl09TG0qKbfam9CMQVLwkN2zjaTFluBohgPqmYImIAKtQ/xIOcdB9Cg+JSGKOFlsi09moDVnQVQPftiuVqv1hrcfzPsIV9ICqp3S2T2knAh2uleDOqooJhLEA00YhVELNGHQvndh1CMDQQrJIR5IYbnEAyksn3gghWQrefiR/GSRVFedBkmF98VSO/FZ0qRcSZqmPKYN76KpSjiQwtoW0uCRlyzmKqPmRY8GnUxG7zou0VBsrdVqm+6FanQiI4lEIpFIJBKJRCKRSCQSiZQj/Q/1awcdA/WKnQAAAABJRU5ErkJggg==;fontSize=12;" parent="LcAE4-p-ZAQXSCbZCqAu-1" vertex="1">
          <mxGeometry x="1294.02" y="236.24" width="113.88" height="44" as="geometry" />
        </mxCell>
        <mxCell id="g3JtSoTKQPr87EbilQ1k-8" value="Scoring" style="aspect=fixed;html=1;points=[];align=center;image;fontSize=12;image=img/lib/mscae/Databricks.svg;labelBackgroundColor=none;" parent="LcAE4-p-ZAQXSCbZCqAu-1" vertex="1">
          <mxGeometry x="961.0000000000001" y="317.33000000000004" width="53.2" height="51.06" as="geometry" />
        </mxCell>
        <mxCell id="g3JtSoTKQPr87EbilQ1k-9" value="" style="shape=image;verticalLabelPosition=bottom;labelBackgroundColor=default;verticalAlign=top;aspect=fixed;imageAspect=0;image=data:image/png,iVBORw0KGgoAAAANSUhEUgAAAhAAAADMCAMAAAAVvWrGAAAABGdBTUEAALGPC/xhBQAAAAFzUkdCAK7OHOkAAAFHUExURQAAAEDP70DP3wCP3wAAAELO7wCc5gAAAEDH70DH5wCX3wCP3wAAAEDF70DF6gCV5ACV3wCP3wAAAETH60DH6wCT4wCT3wAAAEPJ7EDJ7EPG7ACT4gCT3wAAAEPM7wOW5AAAAELH7ACS4gCS3wAAAEPK7wKV4wAAAETI60LI60LG7ULG6wCU4QCS4QAAAETL7wKV4wAAAETH60LH6wCT4QAAAETJ7ULJ7wKU4gCU4gAAAEPI7ELI7AKT3wCT4QAAAEPK7ULK7EPI7QKV4gKU4gCV4gCU4gAAAEPH7EHH7ACT4QAAAEPJ7gGV4gCV4gGT4gCT4gAAAACU4UPK7kPK7AGU4gCU4gAAAEPK7UPJ7QGU4wGU4QCU4QAAAEPJ7kPJ7ULJ7UPI7QGV4gGU4gAAAEPJ7ULJ7QGU4gGT4gAAAEPJ7QGU4gAAADse0BIAAABqdFJOUwAQEBAQHx8fICAgICAwMDAwMDBAQEBAQFBQUFBQUF9fX2BgYGBvb29wcHBwcHBwf39/gICAgI+Pj4+PkJCQkJCfn5+fn5+fn6CgoKCvr6+vr6+wv7+/v7/Pz8/Pz8/f39/f39/f7+/v7+/H8IULAAAOsElEQVR42u2d7X/TyBHHlchNSeRSE7BD69A2FuWuhxPSIq4p1/raxg6t4chBUFJsUuBksGP7/3/dT8iDJe3T7EhyvdL8XsLKsXe/mv3t7GhlWSQSiUQikUgkEolEIpFIJBKJRCKRSKSF1Nra2ppN3UCyftnY+yEYTS4V9P297Sr1SkFlN/avUQhr5Neoc4qn6h6Xhi/apO4pHA7+RCKHOqhYcg5lOEz61EPF0oORlIdJi7qoUF5SHh7IQhRtughUPEwoI1Eg3VLzQBaiSDyMlDyQhaD5IipKSxEPZCGKKR/CwzH1U1G0C+Fh4lFHFWXCAPFAFqIwkhmI0XHH23bd7W4woY4qiFyxa9hemzVbo54qeIA4pjmCAsRMAeFAASKclaSkAwUIWmKSBDkp4oFyELSLRRLNGAH5B5oxqJSWdC6bw8MBdUtxVacAQQqrRQGCpLAQFCCKLCqDIYVVYYFoUK8UWE2aMUhhtWnGIIXVw2etq3FRb5ovG1846dBjXYuopycx/Vzr8ir+2Ys6pS8WUSfTmPSAYD1lAL20RauTHALBPv//Gnopk9Gq0GiYD0QPXxkTv3BIg2E+EAk8ZYWWqzkEIoGnbFLRXQ6B8PBHghzSc345BCKBp+zRUQE5BGLIANHEug9KS+UACAfvKavo0EJaXCDqeE/pYUMLaYGBaOE9pU+eModA+HhPybgPGoocAIH3lJSWyiMQFbyndOnZvxwCkcBTtugQ7BwCkcBT9qgQ02Qg/rbPFXtQyHBfpGixg42uoiAtAhCT5GpQWio/QDgpABGdEpqUljIZiGpyHmJTAm11Gg2EmxyIWAFtQFudJgPhJQdiUz4H0VanUUAcJgfClicwqALfKCD8xDz0FQkMqsA3CohhYiBaCsKoAt8oIJLPGDX5B1IFvlFAVNK2ELTVaTYQydMQsQGnCnyzgWgmBsKjtFSegGilbSGoAt9sINwOT+zSI+iIFP08qsBPqnK5XC5l0NZKUg/RQx9PmWirc/XmnXOtLhcThdK9p68GFwN1dvpqZ13WdmPn2enZ5aienjzZKGULxARdT4mswF++882L/46v9eno27vLeb39wwrRcJ8ZrcGzsoCGp2fxttNX9zMEooqvp8RU4C9vHX0aszr6ZhX0J9cYyW2LrelqeK+Xq/qXWrH2/S+f5/h/AfAgGpDSH9khPhcPiY0TbtPp4H5mQHCWHtDe06/Av/Mtj4ZLJrYyCGez3djgUiuy5rPNutFFa/882+J53rDveZ5tBRe5eReScBEB8RUfBx4SIhxASGCBaKPrKbXTUneOxlK9VyMR6J1rwtnvr2h1xtXeTHDhp4N3/pfQGKCBKEvGeDodRLzE06lUT0uZAIH3lJoV+Mv/HCulRIL9th09fqTbb46wHOgKiP3zlbUzaWGBuHcmH+TpzsxonCiaTgflLIDAe0q9CvzffxpD9He5l+hqPWLmar4zShggroFoBE3L8g66SCC+mip1RUR5oG4rJQIJRAJPqVOBv3o0BupID0LZPOXwXjvZwQSIGRCeb1lBDQkEgIfp9HdgHuREIIHAe0qdCvyb76E8vFjS/Lo/iRvvAio6wtoTTy/XQNiTlWpg4YBYh4zx9Ox8kEunoLbTQSltIPBHXGukpX4DxeHz14o/WtcAgl9jPoQHlBDh10BYvtc+wAGxMYAN8onaT4acZdpA4I+4hlfgP4Ly8OEXqj/qaAS0Nn8/ZgUcUBo8IJp+UMEBcQId5B3r/hSsjZSBwL8lA7zVCebhuyX9eUq8oSZ6CKUCXZKEp8AZEPawb+GAAOtsfQBvLJw0cEBUNRfqsiWdnYwH5XTBT4YJ7/g26NEzyZKkwQXC8jazBmJ6ptP4SapA4D0ltAL/LpCH/9zAYSgKTFVgWSgoQFjHF1cdX66sWy8zBUKPnlKaQOA9JbACf1WQfnj/j8dbd1+Ip4sHu8CJSpT96IuA6CACBGpva05AhHJZKQCB95SwCvxl7nrzzeVW1nVy4vPdmFU4FA10FzgFuNAnCUABImUgTp7cK5es0vrGE4DRHHx/2XjnRLwqSQ0IvKeEVeD/mZeMvH31v1dAvIlNF9Xz0Rk6sDmuCU1aS9edqQcIMRDPwhsW5eeKNeiGunEpPSASeEpQP/+KEx1uz/77EojHsaseXHyiD7vzW3oBQuBCmQDhZATEabwWRpaTPNuANL6fHhB4Twnb6nwvX0p8AeLD7Zhb9WV2sQLzBIEEiAoEoOT143wgnrO3c/lUIzPNS2E+Sw8IvKcEVeA/UmSe3p5HjJibrI5md6kNyS68hiatZZOBn3qA4APxnNeyNNDYqeAQMUgPCLynhKSlVuMB4kPMK3wcj7+W7Sd4ENdzDNzVkv3EagYPmJThWaQNnZ2rMtBEoIDAe0pIBf4jBQ/Wx3iu2ol+7NAGTAY/wXNSwjkmgwDBBUK0Ock1i6KSqCdMy/W0gMB7SlAF/nsFD9bDeK7aDpQrCF/tZh2tJ9h5F6TxBFoZOtkLQsSJqHEJhg4GiKbGXqD+VudWLEDcheQ/o6lpH5KIUAWId8rf2M4gQPCAKMO3JiW7VmzjnbSAwHtKSAV+rCbmO9AHb6uciadcRsbv98pQ84J0HlEtw+953jQwEDfeAW1nYIDAe0pABf5qbMJYwnxyC5BhWJF/twPmy1bmESA4QEjqpNk543tx4/XMgJhANwbUm47KGWML+MkVhWOsq3a3XKawrys3ztkECA4Q6zqNxTMGayLSAgLvKSFpqeiM8QHckT/K04qOCuKA2XNrysNgNgGCHeMzWWtgPvpCg4yAwHtKSAU+LkBYVk3uTWzFSpkNEExQ6cwjQHAqpiyNMR5Y/wcg8J6yrZ5qbkeBuAHvSV+eNBjKB5ANEMyQ96W/ZegsAhDSxicZAYH3lIAK/IfRLS2NnvTkJqIn/dIu74sNJXHQyepkxTI4C7EwQKA9JaQC/68RIP6g0ZM1uVs9lGUe40lrj8vQimzbwyksEHhPCUlLRT3lTZ2uHEpdZUv2x3e5/rAr/pnMtkdqR6+aBwTeU0Iq8N9GgNDqyp40wdGUGB+H7zebYhvqZvYCGPOAwHtKyFbn50gFpVZXdqW7ba5kd6vNn8nqYteRWYAwEAi8p4RU4KM9ZcxVNpQ5kKEqQDD/3plDgDAQCLSnBFXgZwaEI97daousrvD7ZhcgzAMC7ylBFfiZAcEmIlYEv6ghGvfhHAKEeUDgPSWoAj87IAIREIFwLdyFXZHq2x2MAwLvKUEV+BFT+VarK1tyIESW1hVPgB7/C2cZIMwDAu8pQZHlYxiIT1pd6csXMF1BgArEeLugK9J9/YtxQKA9ZRUUWaJ5iJ+h8xAV+YwyG15XcrdXuOjXswwQxgGB95SwM/D/HQHi1xo9aSsKLfjPUNiB5G63uetOP9P3Q5kGBN5Twg6GeIion+MsYvoAlFu8PQlHZkT73M9xCg0E3lPCzsCPHgOgYyLail0Sh7e75QTSu/2Qw/5hti+QMw0ItKcEnoG/FK2HuAOfMYaqR3l5u1tt+d3eYtedTrYBwjgg0vOUgsPG3mqcNii2CBVA5rzPju6BwndUWITSfsOkYUDgPSX0DPxoQcR4FdqRgfKUhh67u9VWlEVWmIVJ1gHCNCDwnhL6asbbY1SIcNW3bZf55o5q3WMz02PWAcI0IPCeEnwG/meMi4iZwxoodR6HlFM3HZtmOpkHCNOAQHtK+Bn4f4qdKgV6UqcNONeHTYSo91ZiyPQzDxCmAYH2lPAz8JfGqmf52Neb7EKeRWcyjCP18VCxqDLMPEAYBgTHUwK7pA0HKVpW+Zj9EszbTDZBFfGqF9I2QJ4p4wBhGBB4T6lxBn7YVsYPDrqIBjEgbo1Aw2TLBzcARZWsA4RhQKA9pc4Z+KEQ8YYxEF+OkopOGb8dAZ+pG2oHCMWZERkECMOAYD0l8AE2rVcz3rjigT21+OIoKZl/kJymHmgHCAVETuGBQHtK+Bn4s4UG55D7PWbF6vjw2HMoG9wa9BbINkCYBQTeU+q97nvpw3g8/hc7XfTiKQx7d6TxjbqSwX2JuMYpPBB4Twk9A//aV3IOuX8wiuW0qnssDrI5rIkY3OacA4RZQKA9JfQM/GttMY9923uRR2zW6ntcS3CskwsBDG59zgHCLCDQnrKOrcOcLS1Dwz/sByORNXR0sqWAwXXmHCDMAgLtKWFn4Ev0YDSBSH6KC2pwh/MNEEYBgfeU0K1OURbjEITDZHTL0ky8q39Gb74Bwigg8J4Se91VrhrGQ3BL19oCJrDufAOEUUCgPWUVeZ0g84SaL7iBCnChN98AYRQQaE/ZRF7HzzwJdKy+ZwV3u+6L4bMMEEYBAU7vJUtLcXLVAEHWLZ5O0lq6NMksQJgEBMdT2rAf2UNeZ1l2FzhdgBBz4bta4m05hCnOKRBNzXtL3Kd9jQ5yAY5y5MEIq+sHCL4TPbYICJ6nfI30lK+1ukiFBBQHQSJClRI5nKCnypwDgfaU0Ap8FBJwHPjhXxnlWnMNECYBgb5R/OQzcKXLZWLU0btXh/oBgmc8agREIk8JrsCXM7H9MvJOk9FLr2ZrfkYPcbNX5hogDAIC7ym9mBK87LRSc7c9b9vdrNiYyw8RN7s91wBhkNCecoFkr8UFuAhzTRGE9pSkfGpCoZOUiqck5VJoT0kiT0kiT0kqmGzylKSw6uQpSXIL0adOKfKMMSRPSQqJs+XXpF4psALylKSQOGlK8pQUIOZXFEAyzkFQWqrAcoK5FqKTFl09TG0qKbfam9CMQVLwkN2zjaTFluBohgPqmYImIAKtQ/xIOcdB9Cg+JSGKOFlsi09moDVnQVQPftiuVqv1hrcfzPsIV9ICqp3S2T2knAh2uleDOqooJhLEA00YhVELNGHQvndh1CMDQQrJIR5IYbnEAyksn3gghWQrefiR/GSRVFedBkmF98VSO/FZ0qRcSZqmPKYN76KpSjiQwtoW0uCRlyzmKqPmRY8GnUxG7zou0VBsrdVqm+6FanQiI4lEIpFIJBKJRCKRSCQSiZQj/Q/1awcdA/WKnQAAAABJRU5ErkJggg==;fontSize=16;" parent="LcAE4-p-ZAQXSCbZCqAu-1" vertex="1">
          <mxGeometry x="1040" y="273.33000000000004" width="113.88" height="44" as="geometry" />
        </mxCell>
        <mxCell id="g3JtSoTKQPr87EbilQ1k-11" value="Alerts" style="image;sketch=0;aspect=fixed;html=1;points=[];align=center;fontSize=12;image=img/lib/mscae/Notification.svg;labelBackgroundColor=none;" parent="LcAE4-p-ZAQXSCbZCqAu-1" vertex="1">
          <mxGeometry x="1325.96" y="326.24" width="50" height="50" as="geometry" />
        </mxCell>
        <mxCell id="g3JtSoTKQPr87EbilQ1k-12" value="" style="endArrow=classic;html=1;strokeWidth=2;strokeColor=#00994D;labelBackgroundColor=none;exitX=0.5;exitY=0;exitDx=0;exitDy=0;" parent="LcAE4-p-ZAQXSCbZCqAu-1" source="I6eMV21CClMDfW5IqpgD-26" target="I6eMV21CClMDfW5IqpgD-42" edge="1">
          <mxGeometry width="50" height="50" relative="1" as="geometry">
            <mxPoint x="446" y="297" as="sourcePoint" />
            <mxPoint x="525" y="297" as="targetPoint" />
            <Array as="points">
              <mxPoint x="1076" y="396" />
            </Array>
          </mxGeometry>
        </mxCell>
        <mxCell id="g3JtSoTKQPr87EbilQ1k-14" value="" style="endArrow=classic;html=1;strokeWidth=2;strokeColor=#00994D;labelBackgroundColor=none;entryX=0;entryY=0.5;entryDx=0;entryDy=0;entryPerimeter=0;" parent="LcAE4-p-ZAQXSCbZCqAu-1" source="I6eMV21CClMDfW5IqpgD-42" target="I6eMV21CClMDfW5IqpgD-57" edge="1">
          <mxGeometry width="50" height="50" relative="1" as="geometry">
            <mxPoint x="466" y="373.24" as="sourcePoint" />
            <mxPoint x="545" y="373.24" as="targetPoint" />
            <Array as="points" />
          </mxGeometry>
        </mxCell>
        <mxCell id="2ooZ0geTkht1RmO19FLc-0" value="" style="endArrow=classic;html=1;strokeWidth=2;strokeColor=#00994D;labelBackgroundColor=none;entryX=0.5;entryY=0;entryDx=0;entryDy=0;" edge="1" parent="LcAE4-p-ZAQXSCbZCqAu-1" source="gEyKVkVUw-G5Uj5i3CAT-11" target="I6eMV21CClMDfW5IqpgD-13">
          <mxGeometry width="50" height="50" relative="1" as="geometry">
            <mxPoint x="446" y="297" as="sourcePoint" />
            <mxPoint x="525" y="297" as="targetPoint" />
            <Array as="points" />
          </mxGeometry>
        </mxCell>
        <mxCell id="2ooZ0geTkht1RmO19FLc-1" value="" style="endArrow=classic;html=1;strokeWidth=2;strokeColor=#00994D;labelBackgroundColor=none;exitX=1;exitY=0.5;exitDx=0;exitDy=0;" edge="1" parent="LcAE4-p-ZAQXSCbZCqAu-1" source="I6eMV21CClMDfW5IqpgD-13" target="g3JtSoTKQPr87EbilQ1k-5">
          <mxGeometry width="50" height="50" relative="1" as="geometry">
            <mxPoint x="690" y="510" as="sourcePoint" />
            <mxPoint x="552" y="586" as="targetPoint" />
            <Array as="points">
              <mxPoint x="600" y="597" />
              <mxPoint x="600" y="452" />
            </Array>
          </mxGeometry>
        </mxCell>
        <mxCell id="2ooZ0geTkht1RmO19FLc-2" value="" style="endArrow=classic;html=1;strokeWidth=2;strokeColor=#00994D;labelBackgroundColor=none;entryX=0.5;entryY=0;entryDx=0;entryDy=0;" edge="1" parent="LcAE4-p-ZAQXSCbZCqAu-1" source="g3JtSoTKQPr87EbilQ1k-5" target="I6eMV21CClMDfW5IqpgD-25">
          <mxGeometry width="50" height="50" relative="1" as="geometry">
            <mxPoint x="573" y="607" as="sourcePoint" />
            <mxPoint x="658" y="462" as="targetPoint" />
            <Array as="points">
              <mxPoint x="756" y="452" />
            </Array>
          </mxGeometry>
        </mxCell>
      </root>
    </mxGraphModel>
  </diagram>
  <diagram name="ingest" id="symD2EUthnOnF6jtJBoU">
    <mxGraphModel dx="1194" dy="803" grid="1" gridSize="10" guides="1" tooltips="1" connect="1" arrows="1" fold="1" page="1" pageScale="1" pageWidth="1654" pageHeight="1169" math="0" shadow="0">
      <root>
        <mxCell id="WluIBgOTPswMCycSyDNG-0" />
        <mxCell id="WluIBgOTPswMCycSyDNG-1" parent="WluIBgOTPswMCycSyDNG-0" />
        <mxCell id="F-EX1VbLwQI4VRinXOoP-0" value="Bronze" style="rounded=1;whiteSpace=wrap;html=1;fillColor=#ffe6cc;strokeColor=#d79b00;labelBackgroundColor=none;" vertex="1" parent="WluIBgOTPswMCycSyDNG-1">
          <mxGeometry x="710" y="520" width="100" height="32.25" as="geometry" />
        </mxCell>
        <mxCell id="F-EX1VbLwQI4VRinXOoP-1" value="" style="endArrow=none;dashed=1;html=1;strokeColor=#CC6600;startArrow=none;entryX=1;entryY=0.5;entryDx=0;entryDy=0;exitX=0;exitY=0.5;exitDx=0;exitDy=0;labelBackgroundColor=none;" edge="1" parent="WluIBgOTPswMCycSyDNG-1" source="F-EX1VbLwQI4VRinXOoP-0" target="F-EX1VbLwQI4VRinXOoP-0">
          <mxGeometry width="50" height="50" relative="1" as="geometry">
            <mxPoint x="433.1500000000001" y="353.02" as="sourcePoint" />
            <mxPoint x="481.70000000000005" y="352.98" as="targetPoint" />
            <Array as="points">
              <mxPoint x="640" y="536.26" />
              <mxPoint x="640" y="760" />
              <mxPoint x="1090" y="760" />
              <mxPoint x="1090" y="536" />
            </Array>
          </mxGeometry>
        </mxCell>
        <mxCell id="F-EX1VbLwQI4VRinXOoP-2" value="Azure Event Hub" style="image;aspect=fixed;html=1;points=[];align=center;fontSize=12;image=img/lib/azure2/analytics/Event_Hubs.svg;" vertex="1" parent="WluIBgOTPswMCycSyDNG-1">
          <mxGeometry x="670" y="569.9999999999999" width="57" height="51.04" as="geometry" />
        </mxCell>
        <mxCell id="F-EX1VbLwQI4VRinXOoP-3" value="Combine Data" style="aspect=fixed;html=1;points=[];align=center;image;fontSize=12;image=img/lib/mscae/Databricks.svg;labelBackgroundColor=none;" vertex="1" parent="WluIBgOTPswMCycSyDNG-1">
          <mxGeometry x="827" y="569.9999999999999" width="53.2" height="51.06" as="geometry" />
        </mxCell>
        <mxCell id="F-EX1VbLwQI4VRinXOoP-4" value="" style="endArrow=classic;html=1;strokeWidth=2;strokeColor=#00994D;labelBackgroundColor=none;" edge="1" parent="WluIBgOTPswMCycSyDNG-1" source="F-EX1VbLwQI4VRinXOoP-2" target="F-EX1VbLwQI4VRinXOoP-3">
          <mxGeometry width="50" height="50" relative="1" as="geometry">
            <mxPoint x="1640" y="541.04" as="sourcePoint" />
            <mxPoint x="1670" y="449.03999999999996" as="targetPoint" />
            <Array as="points" />
          </mxGeometry>
        </mxCell>
        <mxCell id="F-EX1VbLwQI4VRinXOoP-5" value="control table" style="shape=image;verticalLabelPosition=bottom;labelBackgroundColor=none;verticalAlign=top;aspect=fixed;imageAspect=0;image=https://delta.io/static/3bd8fea55ff57287371f4714232cd4ef/f3063/delta-lake-logo.png;fontSize=12;" vertex="1" parent="WluIBgOTPswMCycSyDNG-1">
          <mxGeometry x="976.36" y="572.2199999999999" width="48.05" height="46.61" as="geometry" />
        </mxCell>
        <mxCell id="F-EX1VbLwQI4VRinXOoP-6" value="" style="endArrow=classic;html=1;strokeWidth=2;strokeColor=#00994D;labelBackgroundColor=none;entryX=0;entryY=0.5;entryDx=0;entryDy=0;" edge="1" parent="WluIBgOTPswMCycSyDNG-1" source="F-EX1VbLwQI4VRinXOoP-3" target="F-EX1VbLwQI4VRinXOoP-5">
          <mxGeometry width="50" height="50" relative="1" as="geometry">
            <mxPoint x="737" y="605.41" as="sourcePoint" />
            <mxPoint x="837" y="605.41" as="targetPoint" />
            <Array as="points" />
          </mxGeometry>
        </mxCell>
        <mxCell id="Cao6bb5M3hkzueELLGO--0" value="Bronze Container" style="aspect=fixed;html=1;points=[];align=center;image;fontSize=12;image=img/lib/azure2/general/Storage_Container.svg;labelBackgroundColor=none;" vertex="1" parent="WluIBgOTPswMCycSyDNG-1">
          <mxGeometry x="976.3599999999998" y="675.0600000000001" width="51.69" height="42" as="geometry" />
        </mxCell>
        <mxCell id="Cao6bb5M3hkzueELLGO--1" value="" style="shape=image;verticalLabelPosition=bottom;labelBackgroundColor=none;verticalAlign=top;aspect=fixed;imageAspect=0;image=https://d33wubrfki0l68.cloudfront.net/71c06092efb06fcf30ebecdfda4ff6514ae3112d/aa352/blog/parquet-file-format-big-data-r/parquet-logo.png;" vertex="1" parent="WluIBgOTPswMCycSyDNG-1">
          <mxGeometry x="951.3699999999999" y="669.41" width="40" height="26.65" as="geometry" />
        </mxCell>
        <mxCell id="Cao6bb5M3hkzueELLGO--2" value="" style="endArrow=classic;html=1;strokeWidth=2;strokeColor=#00994D;labelBackgroundColor=none;exitX=0.5;exitY=1;exitDx=0;exitDy=0;" edge="1" parent="WluIBgOTPswMCycSyDNG-1" source="F-EX1VbLwQI4VRinXOoP-5" target="Cao6bb5M3hkzueELLGO--0">
          <mxGeometry width="50" height="50" relative="1" as="geometry">
            <mxPoint x="890" y="605.41" as="sourcePoint" />
            <mxPoint x="990" y="605.41" as="targetPoint" />
            <Array as="points" />
          </mxGeometry>
        </mxCell>
      </root>
    </mxGraphModel>
  </diagram>
  <diagram id="XkVPKPeDepV3T68hhhLp" name="DQ">
    <mxGraphModel dx="1194" dy="803" grid="1" gridSize="10" guides="1" tooltips="1" connect="1" arrows="1" fold="1" page="1" pageScale="1" pageWidth="1169" pageHeight="827" math="0" shadow="0">
      <root>
        <mxCell id="0" />
        <mxCell id="1" parent="0" />
        <mxCell id="JGZBHPkDL-rnXCfV3uWE-2" value="Ingestion" style="rounded=1;whiteSpace=wrap;html=1;fillColor=#f5f5f5;strokeColor=#666666;fontColor=#333333;labelBackgroundColor=none;" parent="1" vertex="1">
          <mxGeometry x="381.24" y="278.38" width="100" height="32.25" as="geometry" />
        </mxCell>
        <mxCell id="JGZBHPkDL-rnXCfV3uWE-3" value="" style="endArrow=none;dashed=1;html=1;strokeColor=#000000;startArrow=none;entryX=1;entryY=0.5;entryDx=0;entryDy=0;exitX=0;exitY=0.5;exitDx=0;exitDy=0;labelBackgroundColor=none;" parent="1" source="JGZBHPkDL-rnXCfV3uWE-2" target="JGZBHPkDL-rnXCfV3uWE-2" edge="1">
          <mxGeometry width="50" height="50" relative="1" as="geometry">
            <mxPoint x="123.15000000000009" y="111.38999999999999" as="sourcePoint" />
            <mxPoint x="171.70000000000005" y="111.35000000000002" as="targetPoint" />
            <Array as="points">
              <mxPoint x="330" y="294.63" />
              <mxPoint x="330" y="601.63" />
              <mxPoint x="580" y="601" />
              <mxPoint x="580" y="295" />
            </Array>
          </mxGeometry>
        </mxCell>
        <mxCell id="JGZBHPkDL-rnXCfV3uWE-4" value="Passenger Data" style="pointerEvents=1;shadow=0;dashed=0;html=1;strokeColor=none;fillColor=#505050;labelPosition=center;verticalLabelPosition=bottom;verticalAlign=top;outlineConnect=0;align=center;shape=mxgraph.office.servers.sql_server;labelBackgroundColor=none;" parent="1" vertex="1">
          <mxGeometry x="233.83" y="290" width="45.35" height="52.75" as="geometry" />
        </mxCell>
        <mxCell id="JGZBHPkDL-rnXCfV3uWE-5" value="" style="endArrow=classic;html=1;strokeWidth=2;strokeColor=#00994D;labelBackgroundColor=none;" parent="1" source="JGZBHPkDL-rnXCfV3uWE-4" target="JGZBHPkDL-rnXCfV3uWE-15" edge="1">
          <mxGeometry width="50" height="50" relative="1" as="geometry">
            <mxPoint x="608.25" y="516.9001976284585" as="sourcePoint" />
            <mxPoint x="684.1255100000001" y="718.1379999999999" as="targetPoint" />
            <Array as="points">
              <mxPoint x="390" y="316" />
              <mxPoint x="390" y="377" />
            </Array>
          </mxGeometry>
        </mxCell>
        <mxCell id="JGZBHPkDL-rnXCfV3uWE-15" value="Ingestion jobs&lt;br&gt;(autoloader, &lt;br&gt;incremental ETL &lt;br&gt;and batch pull)" style="aspect=fixed;html=1;points=[];align=center;image;fontSize=12;image=img/lib/mscae/Databricks.svg;labelBackgroundColor=none;" parent="1" vertex="1">
          <mxGeometry x="424.0499999999999" y="360" width="34.38" height="33" as="geometry" />
        </mxCell>
        <mxCell id="JGZBHPkDL-rnXCfV3uWE-16" value="Mobility data" style="pointerEvents=1;shadow=0;dashed=0;html=1;strokeColor=none;fillColor=#505050;labelPosition=center;verticalLabelPosition=bottom;verticalAlign=top;outlineConnect=0;align=center;shape=mxgraph.office.servers.sql_server;labelBackgroundColor=none;" parent="1" vertex="1">
          <mxGeometry x="233.83" y="399.63" width="45.35" height="52.75" as="geometry" />
        </mxCell>
        <mxCell id="JGZBHPkDL-rnXCfV3uWE-17" value="Survay data" style="pointerEvents=1;shadow=0;dashed=0;html=1;strokeColor=none;fillColor=#505050;labelPosition=center;verticalLabelPosition=bottom;verticalAlign=top;outlineConnect=0;align=center;shape=mxgraph.office.servers.sql_server;labelBackgroundColor=none;" parent="1" vertex="1">
          <mxGeometry x="233.82000000000002" y="532" width="45.35" height="52.75" as="geometry" />
        </mxCell>
        <mxCell id="JGZBHPkDL-rnXCfV3uWE-18" value="" style="endArrow=classic;html=1;strokeWidth=2;strokeColor=#00994D;labelBackgroundColor=none;" parent="1" source="JGZBHPkDL-rnXCfV3uWE-16" target="JGZBHPkDL-rnXCfV3uWE-15" edge="1">
          <mxGeometry width="50" height="50" relative="1" as="geometry">
            <mxPoint x="289" y="327" as="sourcePoint" />
            <mxPoint x="434" y="387" as="targetPoint" />
            <Array as="points">
              <mxPoint x="390" y="426" />
              <mxPoint x="390" y="377" />
            </Array>
          </mxGeometry>
        </mxCell>
        <mxCell id="JGZBHPkDL-rnXCfV3uWE-19" value="" style="endArrow=classic;html=1;strokeWidth=2;strokeColor=#00994D;labelBackgroundColor=none;" parent="1" source="JGZBHPkDL-rnXCfV3uWE-17" target="JGZBHPkDL-rnXCfV3uWE-15" edge="1">
          <mxGeometry width="50" height="50" relative="1" as="geometry">
            <mxPoint x="289" y="436" as="sourcePoint" />
            <mxPoint x="434" y="387" as="targetPoint" />
            <Array as="points">
              <mxPoint x="390" y="558" />
              <mxPoint x="390" y="377" />
            </Array>
          </mxGeometry>
        </mxCell>
        <mxCell id="JGZBHPkDL-rnXCfV3uWE-20" value="Standardization" style="rounded=1;whiteSpace=wrap;html=1;fillColor=#ffe6cc;strokeColor=#d79b00;labelBackgroundColor=none;" parent="1" vertex="1">
          <mxGeometry x="658.74" y="278.37" width="100" height="32.25" as="geometry" />
        </mxCell>
        <mxCell id="JGZBHPkDL-rnXCfV3uWE-21" value="" style="endArrow=none;dashed=1;html=1;strokeColor=#994C00;startArrow=none;entryX=1;entryY=0.5;entryDx=0;entryDy=0;exitX=0;exitY=0.5;exitDx=0;exitDy=0;labelBackgroundColor=none;" parent="1" source="JGZBHPkDL-rnXCfV3uWE-20" target="JGZBHPkDL-rnXCfV3uWE-20" edge="1">
          <mxGeometry width="50" height="50" relative="1" as="geometry">
            <mxPoint x="400.6500000000001" y="111.37999999999998" as="sourcePoint" />
            <mxPoint x="449.20000000000005" y="111.34000000000002" as="targetPoint" />
            <Array as="points">
              <mxPoint x="607.5" y="294.62" />
              <mxPoint x="608" y="500" />
              <mxPoint x="810" y="500" />
              <mxPoint x="810" y="294" />
            </Array>
          </mxGeometry>
        </mxCell>
        <mxCell id="JGZBHPkDL-rnXCfV3uWE-22" value="Standardize to &lt;br&gt;snappy parquet" style="aspect=fixed;html=1;points=[];align=center;image;fontSize=12;image=img/lib/mscae/Databricks.svg;labelBackgroundColor=none;" parent="1" vertex="1">
          <mxGeometry x="678.3799999999999" y="360" width="34.38" height="33" as="geometry" />
        </mxCell>
        <mxCell id="JGZBHPkDL-rnXCfV3uWE-23" value="Delta Lake" style="shape=image;verticalLabelPosition=bottom;labelBackgroundColor=none;verticalAlign=top;aspect=fixed;imageAspect=0;image=https://delta.io/static/3bd8fea55ff57287371f4714232cd4ef/f3063/delta-lake-logo.png;fontSize=12;" parent="1" vertex="1">
          <mxGeometry x="629.9999999999999" y="510" width="53.61" height="52" as="geometry" />
        </mxCell>
        <mxCell id="JGZBHPkDL-rnXCfV3uWE-24" value="" style="endArrow=none;dashed=1;html=1;strokeColor=#0000FF;fillColor=#f8cecc;entryX=1;entryY=0.5;entryDx=0;entryDy=0;exitX=0;exitY=0.5;exitDx=0;exitDy=0;labelBackgroundColor=none;" parent="1" source="JGZBHPkDL-rnXCfV3uWE-23" target="JGZBHPkDL-rnXCfV3uWE-23" edge="1">
          <mxGeometry width="50" height="50" relative="1" as="geometry">
            <mxPoint x="354" y="751" as="sourcePoint" />
            <mxPoint x="354" y="701" as="targetPoint" />
            <Array as="points">
              <mxPoint x="600" y="536" />
              <mxPoint x="600" y="800" />
              <mxPoint x="1470" y="800" />
              <mxPoint x="1470" y="536" />
            </Array>
          </mxGeometry>
        </mxCell>
        <mxCell id="JGZBHPkDL-rnXCfV3uWE-25" value="bronze" style="shape=image;verticalLabelPosition=bottom;labelBackgroundColor=none;verticalAlign=top;aspect=fixed;imageAspect=0;image=https://delta.io/static/3bd8fea55ff57287371f4714232cd4ef/f3063/delta-lake-logo.png;fontSize=12;" parent="1" vertex="1">
          <mxGeometry x="734.38" y="570" width="42.27" height="41" as="geometry" />
        </mxCell>
        <mxCell id="JGZBHPkDL-rnXCfV3uWE-26" value="" style="endArrow=classic;html=1;strokeWidth=2;strokeColor=#00994D;entryX=0.5;entryY=0;entryDx=0;entryDy=0;labelBackgroundColor=none;" parent="1" source="JGZBHPkDL-rnXCfV3uWE-22" target="JGZBHPkDL-rnXCfV3uWE-25" edge="1">
          <mxGeometry width="50" height="50" relative="1" as="geometry">
            <mxPoint x="563" y="749" as="sourcePoint" />
            <mxPoint x="688" y="387" as="targetPoint" />
            <Array as="points">
              <mxPoint x="756" y="377" />
            </Array>
          </mxGeometry>
        </mxCell>
        <mxCell id="JGZBHPkDL-rnXCfV3uWE-27" value="Extrapolation" style="rounded=1;whiteSpace=wrap;html=1;fillColor=#f5f5f5;strokeColor=#666666;fontColor=#333333;labelBackgroundColor=none;" parent="1" vertex="1">
          <mxGeometry x="876.99" y="278.37" width="100" height="32.25" as="geometry" />
        </mxCell>
        <mxCell id="JGZBHPkDL-rnXCfV3uWE-28" value="" style="endArrow=none;dashed=1;html=1;strokeColor=#000000;startArrow=none;entryX=1;entryY=0.5;entryDx=0;entryDy=0;exitX=0;exitY=0.5;exitDx=0;exitDy=0;labelBackgroundColor=none;" parent="1" source="JGZBHPkDL-rnXCfV3uWE-27" target="JGZBHPkDL-rnXCfV3uWE-27" edge="1">
          <mxGeometry width="50" height="50" relative="1" as="geometry">
            <mxPoint x="618.9000000000001" y="111.37999999999998" as="sourcePoint" />
            <mxPoint x="667.45" y="111.34000000000002" as="targetPoint" />
            <Array as="points">
              <mxPoint x="825.75" y="294.62" />
              <mxPoint x="826.25" y="500" />
              <mxPoint x="1028.25" y="500" />
              <mxPoint x="1028.25" y="294" />
            </Array>
          </mxGeometry>
        </mxCell>
        <mxCell id="JGZBHPkDL-rnXCfV3uWE-29" value="intermediate joins &lt;br&gt;and aggregations" style="aspect=fixed;html=1;points=[];align=center;image;fontSize=12;image=img/lib/mscae/Databricks.svg;labelBackgroundColor=none;" parent="1" vertex="1">
          <mxGeometry x="896.6299999999999" y="360" width="34.38" height="33" as="geometry" />
        </mxCell>
        <mxCell id="JGZBHPkDL-rnXCfV3uWE-30" value="Enrichment" style="rounded=1;whiteSpace=wrap;html=1;fillColor=#fff2cc;strokeColor=#d6b656;labelBackgroundColor=none;" parent="1" vertex="1">
          <mxGeometry x="1094.24" y="278.37" width="100" height="32.25" as="geometry" />
        </mxCell>
        <mxCell id="JGZBHPkDL-rnXCfV3uWE-31" value="" style="endArrow=none;dashed=1;html=1;strokeColor=#999900;startArrow=none;entryX=1;entryY=0.5;entryDx=0;entryDy=0;exitX=0;exitY=0.5;exitDx=0;exitDy=0;labelBackgroundColor=none;" parent="1" source="JGZBHPkDL-rnXCfV3uWE-30" target="JGZBHPkDL-rnXCfV3uWE-30" edge="1">
          <mxGeometry width="50" height="50" relative="1" as="geometry">
            <mxPoint x="836.1500000000001" y="111.37999999999998" as="sourcePoint" />
            <mxPoint x="884.7" y="111.34000000000002" as="targetPoint" />
            <Array as="points">
              <mxPoint x="1043" y="294.62" />
              <mxPoint x="1043.5" y="500" />
              <mxPoint x="1245.5" y="500" />
              <mxPoint x="1245.5" y="294" />
            </Array>
          </mxGeometry>
        </mxCell>
        <mxCell id="JGZBHPkDL-rnXCfV3uWE-32" value="prepare data for dashboard" style="aspect=fixed;html=1;points=[];align=center;image;fontSize=12;image=img/lib/mscae/Databricks.svg;labelBackgroundColor=none;" parent="1" vertex="1">
          <mxGeometry x="1113.8799999999999" y="360" width="34.38" height="33" as="geometry" />
        </mxCell>
        <mxCell id="JGZBHPkDL-rnXCfV3uWE-33" value="silver" style="shape=image;verticalLabelPosition=bottom;labelBackgroundColor=none;verticalAlign=top;aspect=fixed;imageAspect=0;image=https://delta.io/static/3bd8fea55ff57287371f4714232cd4ef/f3063/delta-lake-logo.png;fontSize=12;" parent="1" vertex="1">
          <mxGeometry x="981.99" y="564" width="42.27" height="41" as="geometry" />
        </mxCell>
        <mxCell id="JGZBHPkDL-rnXCfV3uWE-34" value="gold" style="shape=image;verticalLabelPosition=bottom;labelBackgroundColor=none;verticalAlign=top;aspect=fixed;imageAspect=0;image=https://delta.io/static/3bd8fea55ff57287371f4714232cd4ef/f3063/delta-lake-logo.png;fontSize=12;" parent="1" vertex="1">
          <mxGeometry x="1210" y="564" width="42.27" height="41" as="geometry" />
        </mxCell>
        <mxCell id="JGZBHPkDL-rnXCfV3uWE-35" value="" style="endArrow=classic;html=1;strokeWidth=2;strokeColor=#00994D;entryX=0.5;entryY=0;entryDx=0;entryDy=0;labelBackgroundColor=none;" parent="1" source="JGZBHPkDL-rnXCfV3uWE-32" target="JGZBHPkDL-rnXCfV3uWE-34" edge="1">
          <mxGeometry width="50" height="50" relative="1" as="geometry">
            <mxPoint x="723" y="387" as="sourcePoint" />
            <mxPoint x="766" y="580" as="targetPoint" />
            <Array as="points">
              <mxPoint x="1231" y="377" />
            </Array>
          </mxGeometry>
        </mxCell>
        <mxCell id="JGZBHPkDL-rnXCfV3uWE-36" value="" style="endArrow=classic;html=1;strokeWidth=2;strokeColor=#00994D;exitX=1;exitY=0.5;exitDx=0;exitDy=0;labelBackgroundColor=none;" parent="1" source="JGZBHPkDL-rnXCfV3uWE-33" target="JGZBHPkDL-rnXCfV3uWE-32" edge="1">
          <mxGeometry width="50" height="50" relative="1" as="geometry">
            <mxPoint x="1158" y="387" as="sourcePoint" />
            <mxPoint x="1241" y="574" as="targetPoint" />
            <Array as="points">
              <mxPoint x="1050" y="585" />
              <mxPoint x="1050" y="377" />
            </Array>
          </mxGeometry>
        </mxCell>
        <mxCell id="JGZBHPkDL-rnXCfV3uWE-37" value="" style="endArrow=classic;html=1;strokeWidth=2;strokeColor=#00994D;entryX=0.5;entryY=0;entryDx=0;entryDy=0;labelBackgroundColor=none;" parent="1" source="JGZBHPkDL-rnXCfV3uWE-29" target="JGZBHPkDL-rnXCfV3uWE-33" edge="1">
          <mxGeometry width="50" height="50" relative="1" as="geometry">
            <mxPoint x="1158" y="387" as="sourcePoint" />
            <mxPoint x="1241" y="574" as="targetPoint" />
            <Array as="points">
              <mxPoint x="1003" y="377" />
            </Array>
          </mxGeometry>
        </mxCell>
        <mxCell id="JGZBHPkDL-rnXCfV3uWE-38" value="" style="endArrow=classic;html=1;strokeWidth=2;strokeColor=#00994D;exitX=1;exitY=0.5;exitDx=0;exitDy=0;labelBackgroundColor=none;" parent="1" source="JGZBHPkDL-rnXCfV3uWE-25" target="JGZBHPkDL-rnXCfV3uWE-29" edge="1">
          <mxGeometry width="50" height="50" relative="1" as="geometry">
            <mxPoint x="941" y="387" as="sourcePoint" />
            <mxPoint x="1013" y="574" as="targetPoint" />
            <Array as="points">
              <mxPoint x="830" y="590" />
              <mxPoint x="830" y="377" />
            </Array>
          </mxGeometry>
        </mxCell>
        <mxCell id="JGZBHPkDL-rnXCfV3uWE-45" value="Data Engineers" style="verticalLabelPosition=bottom;html=1;verticalAlign=top;align=center;strokeColor=none;fillColor=#00BEF2;shape=mxgraph.azure.user;labelBackgroundColor=none;" parent="1" vertex="1">
          <mxGeometry x="1400" y="269.99999999999994" width="30" height="31.68" as="geometry" />
        </mxCell>
        <mxCell id="JGZBHPkDL-rnXCfV3uWE-46" value="" style="endArrow=none;html=1;strokeWidth=1;strokeColor=#000000;dashed=1;entryX=0.25;entryY=0;entryDx=0;entryDy=0;startArrow=classic;startFill=1;endFill=0;labelBackgroundColor=none;exitX=0.14;exitY=0.65;exitDx=0;exitDy=0;exitPerimeter=0;" parent="1" source="JGZBHPkDL-rnXCfV3uWE-45" target="H_rsyrSgxaKJZ-ZQZP7K-9" edge="1">
          <mxGeometry width="50" height="50" relative="1" as="geometry">
            <mxPoint x="1400" y="290" as="sourcePoint" />
            <mxPoint x="1430" y="221.1599999999998" as="targetPoint" />
            <Array as="points">
              <mxPoint x="1333" y="290" />
            </Array>
          </mxGeometry>
        </mxCell>
        <mxCell id="YF66gYaXmQ13JHyxmqJq-1" value="" style="endArrow=classic;html=1;strokeWidth=2;strokeColor=#00994D;labelBackgroundColor=none;" parent="1" source="JGZBHPkDL-rnXCfV3uWE-15" target="JGZBHPkDL-rnXCfV3uWE-22" edge="1">
          <mxGeometry width="50" height="50" relative="1" as="geometry">
            <mxPoint x="723" y="387" as="sourcePoint" />
            <mxPoint x="766" y="580" as="targetPoint" />
            <Array as="points" />
          </mxGeometry>
        </mxCell>
        <mxCell id="H_rsyrSgxaKJZ-ZQZP7K-1" value="Data does not satisfy&amp;nbsp;Six Dimensions" style="shape=callout;whiteSpace=wrap;html=1;perimeter=calloutPerimeter;fontSize=12;fillColor=#fff2cc;strokeColor=#d6b656;position2=0.9;labelBackgroundColor=none;" parent="1" vertex="1">
          <mxGeometry x="336.5" y="180" width="100" height="80" as="geometry" />
        </mxCell>
        <mxCell id="H_rsyrSgxaKJZ-ZQZP7K-2" value="Data should satisfy&amp;nbsp;Six Dimensions" style="shape=callout;whiteSpace=wrap;html=1;perimeter=calloutPerimeter;fontSize=12;fillColor=#fff2cc;strokeColor=#d6b656;position2=0.9;labelBackgroundColor=none;" parent="1" vertex="1">
          <mxGeometry x="1110" y="525" width="100" height="80" as="geometry" />
        </mxCell>
        <mxCell id="H_rsyrSgxaKJZ-ZQZP7K-3" value="Majority of quality testing with expectations will take place after applying VDV extrapolations" style="shape=callout;whiteSpace=wrap;html=1;perimeter=calloutPerimeter;fontSize=12;fillColor=#fff2cc;strokeColor=#d6b656;position2=0.57;labelBackgroundColor=none;" parent="1" vertex="1">
          <mxGeometry x="820" y="180" width="180" height="90" as="geometry" />
        </mxCell>
        <mxCell id="H_rsyrSgxaKJZ-ZQZP7K-4" value="Data Quality Metrics" style="shape=image;verticalLabelPosition=bottom;labelBackgroundColor=none;verticalAlign=top;aspect=fixed;imageAspect=0;image=https://delta.io/static/3bd8fea55ff57287371f4714232cd4ef/f3063/delta-lake-logo.png;fontSize=12;" parent="1" vertex="1">
          <mxGeometry x="981.99" y="660" width="42.27" height="41" as="geometry" />
        </mxCell>
        <mxCell id="H_rsyrSgxaKJZ-ZQZP7K-5" value="" style="endArrow=classic;html=1;strokeWidth=2;strokeColor=#00994D;entryX=0;entryY=0.5;entryDx=0;entryDy=0;labelBackgroundColor=none;exitX=0.5;exitY=1;exitDx=0;exitDy=0;" parent="1" source="ffcZNQ_vb8BtcU0qQCrQ-1" target="H_rsyrSgxaKJZ-ZQZP7K-4" edge="1">
          <mxGeometry width="50" height="50" relative="1" as="geometry">
            <mxPoint x="723" y="387" as="sourcePoint" />
            <mxPoint x="766" y="580" as="targetPoint" />
            <Array as="points">
              <mxPoint x="756" y="681" />
            </Array>
          </mxGeometry>
        </mxCell>
        <mxCell id="H_rsyrSgxaKJZ-ZQZP7K-6" value="" style="endArrow=classic;html=1;strokeWidth=2;strokeColor=#00994D;entryX=0;entryY=0.25;entryDx=0;entryDy=0;labelBackgroundColor=none;exitX=0;exitY=0.5;exitDx=0;exitDy=0;" parent="1" source="JGZBHPkDL-rnXCfV3uWE-33" target="H_rsyrSgxaKJZ-ZQZP7K-4" edge="1">
          <mxGeometry width="50" height="50" relative="1" as="geometry">
            <mxPoint x="766" y="621" as="sourcePoint" />
            <mxPoint x="992" y="691" as="targetPoint" />
            <Array as="points">
              <mxPoint x="950" y="585" />
              <mxPoint x="950" y="670" />
            </Array>
          </mxGeometry>
        </mxCell>
        <mxCell id="H_rsyrSgxaKJZ-ZQZP7K-8" value="" style="endArrow=classic;html=1;strokeWidth=2;strokeColor=#00994D;entryX=1;entryY=0.5;entryDx=0;entryDy=0;labelBackgroundColor=none;exitX=0.5;exitY=1;exitDx=0;exitDy=0;" parent="1" source="JGZBHPkDL-rnXCfV3uWE-34" target="H_rsyrSgxaKJZ-ZQZP7K-4" edge="1">
          <mxGeometry width="50" height="50" relative="1" as="geometry">
            <mxPoint x="1180" y="630" as="sourcePoint" />
            <mxPoint x="992" y="691" as="targetPoint" />
            <Array as="points">
              <mxPoint x="1231" y="680" />
            </Array>
          </mxGeometry>
        </mxCell>
        <mxCell id="H_rsyrSgxaKJZ-ZQZP7K-9" value="Daily/Hourly quality metrics" style="shape=image;verticalLabelPosition=bottom;labelBackgroundColor=none;verticalAlign=top;aspect=fixed;imageAspect=0;image=https://www.databricks.com/en-website-assets/static/b3b786bc7c3c6d1ec241ba0969d91295/better_data_quality.jpg;" parent="1" vertex="1">
          <mxGeometry x="1277.09" y="353" width="221.95" height="146" as="geometry" />
        </mxCell>
        <mxCell id="H_rsyrSgxaKJZ-ZQZP7K-10" value="" style="endArrow=classic;html=1;strokeWidth=2;strokeColor=#00994D;entryX=0.5;entryY=1;entryDx=0;entryDy=0;labelBackgroundColor=none;exitX=1;exitY=0.75;exitDx=0;exitDy=0;" parent="1" source="H_rsyrSgxaKJZ-ZQZP7K-4" target="H_rsyrSgxaKJZ-ZQZP7K-9" edge="1">
          <mxGeometry width="50" height="50" relative="1" as="geometry">
            <mxPoint x="1241" y="615" as="sourcePoint" />
            <mxPoint x="1034" y="691" as="targetPoint" />
            <Array as="points">
              <mxPoint x="1388" y="690" />
            </Array>
          </mxGeometry>
        </mxCell>
        <mxCell id="ffcZNQ_vb8BtcU0qQCrQ-1" value="Deeq unit tests" style="rounded=1;whiteSpace=wrap;html=1;fontSize=16;fillColor=#d5e8d4;strokeColor=#82b366;labelBackgroundColor=none;" parent="1" vertex="1">
          <mxGeometry x="695.52" y="640" width="120" height="30" as="geometry" />
        </mxCell>
        <mxCell id="ffcZNQ_vb8BtcU0qQCrQ-2" value="" style="endArrow=classic;html=1;strokeWidth=2;strokeColor=#00994D;entryX=0.5;entryY=0;entryDx=0;entryDy=0;labelBackgroundColor=none;exitX=0.5;exitY=1;exitDx=0;exitDy=0;" parent="1" source="JGZBHPkDL-rnXCfV3uWE-25" target="ffcZNQ_vb8BtcU0qQCrQ-1" edge="1">
          <mxGeometry width="50" height="50" relative="1" as="geometry">
            <mxPoint x="766" y="680" as="sourcePoint" />
            <mxPoint x="992" y="691" as="targetPoint" />
            <Array as="points" />
          </mxGeometry>
        </mxCell>
        <mxCell id="ffcZNQ_vb8BtcU0qQCrQ-3" value="Bad Records" style="shape=image;verticalLabelPosition=bottom;labelBackgroundColor=none;verticalAlign=top;aspect=fixed;imageAspect=0;image=https://delta.io/static/3bd8fea55ff57287371f4714232cd4ef/f3063/delta-lake-logo.png;fontSize=12;" parent="1" vertex="1">
          <mxGeometry x="830" y="720" width="42.27" height="41" as="geometry" />
        </mxCell>
        <mxCell id="ffcZNQ_vb8BtcU0qQCrQ-4" value="" style="endArrow=classic;html=1;strokeWidth=2;strokeColor=#00994D;entryX=0;entryY=0.5;entryDx=0;entryDy=0;labelBackgroundColor=none;exitX=0.25;exitY=1;exitDx=0;exitDy=0;" parent="1" source="ffcZNQ_vb8BtcU0qQCrQ-1" target="ffcZNQ_vb8BtcU0qQCrQ-3" edge="1">
          <mxGeometry width="50" height="50" relative="1" as="geometry">
            <mxPoint x="766" y="680" as="sourcePoint" />
            <mxPoint x="992" y="691" as="targetPoint" />
            <Array as="points">
              <mxPoint x="726" y="740" />
            </Array>
          </mxGeometry>
        </mxCell>
      </root>
    </mxGraphModel>
  </diagram>
</mxfile>
